<svg width="15" height="15" viewBox="0 0 15 15" fill="none" xmlns="http://www.w3.org/2000/svg">
<path d="M12.6562 14.0625H2.34375C1.56709 14.0625 0.9375 13.4329 0.9375 12.6562V2.34375C0.9375 1.56709 1.56709 0.9375 2.34375 0.9375H12.6562C13.4329 0.9375 14.0625 1.56709 14.0625 2.34375V12.6562C14.0625 13.4329 13.4329 14.0625 12.6562 14.0625ZM6.65959 11.1897L12.0502 5.79905C12.2333 5.61601 12.2333 5.3192 12.0502 5.13615L11.3873 4.47325C11.2043 4.2902 10.9075 4.29018 10.7244 4.47325L6.32812 8.86948L4.27562 6.81697C4.09257 6.63393 3.79576 6.63393 3.61269 6.81697L2.94979 7.47987C2.76674 7.66292 2.76674 7.95973 2.94979 8.14277L5.99666 11.1896C6.17974 11.3728 6.47651 11.3728 6.65959 11.1897Z" fill="black"/>
</svg>
